<svg xmlns="http://www.w3.org/2000/svg" viewBox="0 0 1400 900" width="1400" height="900">
  <defs>
    <!-- Halftone dot pattern - Spider-Verse comic style -->
    <pattern id="halftone" x="0" y="0" width="8" height="8" patternUnits="userSpaceOnUse">
      <circle cx="4" cy="4" r="1.5" fill="#1a0030" fill-opacity="0.3"/>
    </pattern>
    <!-- Sky gradient - golden hour / sunset -->
    <linearGradient id="sunsetSky" x1="0" y1="0" x2="0" y2="1">
      <stop offset="0%" stop-color="#ff6b35"/>
      <stop offset="25%" stop-color="#ff8c42"/>
      <stop offset="55%" stop-color="#ffc857"/>
      <stop offset="80%" stop-color="#ff9f1c"/>
      <stop offset="100%" stop-color="#e76f51"/>
    </linearGradient>
    <!-- Water gradient -->
    <linearGradient id="riverGrad" x1="0" y1="0" x2="0" y2="1">
      <stop offset="0%" stop-color="#1d3557"/>
      <stop offset="40%" stop-color="#1a2a4a"/>
      <stop offset="100%" stop-color="#0d1b2a"/>
    </linearGradient>
    <!-- Building silhouette dark -->
    <linearGradient id="bldSil" x1="0" y1="0" x2="0" y2="1">
      <stop offset="0%" stop-color="#1a0830"/>
      <stop offset="100%" stop-color="#0a0520"/>
    </linearGradient>
    <!-- Building mid-dark -->
    <linearGradient id="bldMidCol" x1="0" y1="0" x2="0" y2="1">
      <stop offset="0%" stop-color="#2d1b4e"/>
      <stop offset="100%" stop-color="#1a0830"/>
    </linearGradient>
    <!-- Sun/light glow -->
    <radialGradient id="sunGlow" cx="50%" cy="50%" r="50%">
      <stop offset="0%" stop-color="#fff3b0" stop-opacity="1"/>
      <stop offset="30%" stop-color="#ffcc44" stop-opacity="0.8"/>
      <stop offset="70%" stop-color="#ff8800" stop-opacity="0.3"/>
      <stop offset="100%" stop-color="transparent"/>
    </radialGradient>
    <!-- Web pattern -->
    <pattern id="webPattern" x="0" y="0" width="200" height="200" patternUnits="userSpaceOnUse">
      <!-- Radial lines -->
      <line x1="100" y1="100" x2="100" y2="0" stroke="#ff0000" stroke-width="0.5" opacity="0.15"/>
      <line x1="100" y1="100" x2="141" y2="41" stroke="#ff0000" stroke-width="0.5" opacity="0.15"/>
      <line x1="100" y1="100" x2="173" y2="0" stroke="#ff0000" stroke-width="0.5" opacity="0.15"/>
      <line x1="100" y1="100" x2="200" y2="50" stroke="#ff0000" stroke-width="0.5" opacity="0.15"/>
      <line x1="100" y1="100" x2="200" y2="100" stroke="#ff0000" stroke-width="0.5" opacity="0.15"/>
      <!-- Concentric arcs -->
      <circle cx="100" cy="100" r="30" fill="none" stroke="#ff0000" stroke-width="0.5" opacity="0.15"/>
      <circle cx="100" cy="100" r="60" fill="none" stroke="#ff0000" stroke-width="0.5" opacity="0.15"/>
      <circle cx="100" cy="100" r="90" fill="none" stroke="#ff0000" stroke-width="0.5" opacity="0.15"/>
    </pattern>
    <!-- Glow filters -->
    <filter id="glow">
      <feGaussianBlur stdDeviation="5" result="blur"/>
      <feMerge><feMergeNode in="blur"/><feMergeNode in="SourceGraphic"/></feMerge>
    </filter>
    <filter id="strongGlow">
      <feGaussianBlur stdDeviation="12" result="blur"/>
      <feMerge><feMergeNode in="blur"/><feMergeNode in="SourceGraphic"/></feMerge>
    </filter>
    <filter id="tinyGlow">
      <feGaussianBlur stdDeviation="2" result="blur"/>
      <feMerge><feMergeNode in="blur"/><feMergeNode in="SourceGraphic"/></feMerge>
    </filter>
    <!-- Comic ink lines -->
    <filter id="outline">
      <feMorphology operator="dilate" radius="1" in="SourceGraphic" result="expanded"/>
      <feFlood flood-color="black" result="black"/>
      <feComposite in="black" in2="expanded" operator="in" result="outline"/>
      <feMerge><feMergeNode in="outline"/><feMergeNode in="SourceGraphic"/></feMerge>
    </filter>
    <!-- Water reflection -->
    <linearGradient id="waterReflect" x1="0" y1="0" x2="0" y2="1">
      <stop offset="0%" stop-color="#ff8800" stop-opacity="0.4"/>
      <stop offset="100%" stop-color="#1a2a4a" stop-opacity="0.1"/>
    </linearGradient>
  </defs>

  <!-- SUNSET SKY -->
  <rect width="1400" height="900" fill="url(#sunsetSky)"/>

  <!-- Sun glow -->
  <circle cx="700" cy="560" r="280" fill="url(#sunGlow)" opacity="0.6"/>
  <circle cx="700" cy="560" r="80" fill="#fff3b0" opacity="0.9"/>
  <circle cx="700" cy="560" r="50" fill="#ffffff" opacity="1"/>

  <!-- Cloud silhouettes -->
  <g fill="#ff5533" opacity="0.5">
    <ellipse cx="150" cy="120" rx="120" ry="40"/>
    <ellipse cx="100" cy="130" rx="80" ry="30"/>
    <ellipse cx="220" cy="110" rx="90" ry="35"/>
  </g>
  <g fill="#cc3300" opacity="0.3">
    <ellipse cx="1200" cy="100" rx="130" ry="45"/>
    <ellipse cx="1150" cy="115" rx="90" ry="32"/>
    <ellipse cx="1300" cy="90" rx="80" ry="30"/>
  </g>
  <g fill="#ff7744" opacity="0.4">
    <ellipse cx="450" cy="80" rx="100" ry="35"/>
    <ellipse cx="380" cy="95" rx="70" ry="25"/>
    <ellipse cx="550" cy="70" rx="75" ry="28"/>
  </g>
  <g fill="#ff9922" opacity="0.35">
    <ellipse cx="900" cy="90" rx="110" ry="38"/>
    <ellipse cx="970" cy="75" rx="80" ry="30"/>
  </g>

  <!-- Halftone overlay - comic texture -->
  <rect width="1400" height="900" fill="url(#halftone)"/>

  <!-- WEB pattern on sky -->
  <rect width="1400" height="900" fill="url(#webPattern)" opacity="0.5"/>

  <!-- DISTANT CITY LAYER - silhouette -->
  <g fill="#3d1566" opacity="0.7">
    <rect x="0" y="350" width="40" height="400"/>
    <rect x="30" y="320" width="50" height="430"/>
    <rect x="70" y="300" width="60" height="450"/>
    <rect x="110" y="340" width="45" height="410"/>
    <rect x="1200" y="350" width="40" height="400"/>
    <rect x="1230" y="310" width="60" height="440"/>
    <rect x="1280" y="330" width="50" height="420"/>
    <rect x="1320" y="360" width="80" height="390"/>
  </g>

  <!-- BACKGROUND BUILDINGS - classic NYC silhouette -->
  <!-- Left side buildings -->
  <rect x="-10" y="290" width="80" height="580" fill="url(#bldSil)"/>
  <rect x="50" y="260" width="90" height="610" fill="url(#bldMidCol)"/>
  <!-- stepped top -->
  <rect x="65" y="240" width="70" height="30" fill="url(#bldSil)"/>
  <rect x="80" y="220" width="45" height="25" fill="url(#bldSil)"/>
  <!-- Water tower on top -->
  <polygon points="92,220 113,220 106,200 99,200" fill="#1a0830"/>
  <rect x="97" y="198" width="10" height="5" fill="#1a0830"/>
  
  <rect x="130" y="220" width="110" height="650" fill="url(#bldSil)"/>
  <!-- Art deco top steps -->
  <rect x="135" y="200" width="100" height="25" fill="url(#bldMidCol)"/>
  <rect x="145" y="178" width="80" height="25" fill="url(#bldMidCol)"/>
  <rect x="158" y="160" width="55" height="20" fill="url(#bldSil)"/>
  <rect x="168" y="148" width="35" height="15" fill="url(#bldSil)"/>
  <line x1="185" y1="148" x2="185" y2="120" stroke="#cc0000" stroke-width="2" filter="url(#tinyGlow)"/>
  <!-- Windows lit up -->
  <g fill="#ffcc44" opacity="0.7">
    <rect x="145" y="235" width="12" height="18" rx="1"/>
    <rect x="162" y="235" width="12" height="18" rx="1"/>
    <rect x="179" y="235" width="12" height="18" rx="1"/>
    <rect x="196" y="235" width="12" height="18" rx="1"/>
    <rect x="145" y="270" width="12" height="18" rx="1"/>
    <rect x="162" y="270" width="12" height="18" rx="1"/>
    <rect x="196" y="270" width="12" height="18" rx="1"/>
    <rect x="145" y="305" width="12" height="18" rx="1"/>
    <rect x="179" y="305" width="12" height="18" rx="1"/>
    <rect x="145" y="340" width="12" height="18" rx="1"/>
    <rect x="162" y="340" width="12" height="18" rx="1"/>
    <rect x="196" y="340" width="12" height="18" rx="1"/>
  </g>

  <!-- CHRYSLER BUILDING style - iconic -->
  <rect x="240" y="180" width="100" height="700" fill="url(#bldSil)"/>
  <!-- Chrysler crown -->
  <polygon points="240,180 290,80 340,180" fill="url(#bldMidCol)"/>
  <!-- Eagle gargoyle shapes - simplified -->
  <polygon points="235,200 245,185 250,210" fill="url(#bldSil)"/>
  <polygon points="345,200 355,185 340,210" fill="url(#bldSil)"/>
  <!-- Sunburst arches -->
  <path d="M248,175 Q290,140 332,175" fill="none" stroke="#c0a060" stroke-width="2" opacity="0.8"/>
  <path d="M255,160 Q290,128 325,160" fill="none" stroke="#c0a060" stroke-width="1.5" opacity="0.7"/>
  <!-- Spire -->
  <line x1="290" y1="80" x2="290" y2="40" stroke="#d4af37" stroke-width="3" filter="url(#glow)"/>
  <line x1="290" y1="80" x2="290" y2="40" stroke="#ffffff" stroke-width="1" filter="url(#glow)" opacity="0.8"/>
  <!-- Windows -->
  <g fill="#ffdd88" opacity="0.6">
    <rect x="255" y="195" width="10" height="16" rx="1"/>
    <rect x="270" y="195" width="10" height="16" rx="1"/>
    <rect x="285" y="195" width="10" height="16" rx="1"/>
    <rect x="300" y="195" width="10" height="16" rx="1"/>
    <rect x="315" y="195" width="10" height="16" rx="1"/>
    <rect x="255" y="228" width="10" height="16" rx="1"/>
    <rect x="285" y="228" width="10" height="16" rx="1"/>
    <rect x="315" y="228" width="10" height="16" rx="1"/>
    <rect x="270" y="261" width="10" height="16" rx="1"/>
    <rect x="300" y="261" width="10" height="16" rx="1"/>
    <rect x="255" y="294" width="10" height="16" rx="1"/>
    <rect x="315" y="294" width="10" height="16" rx="1"/>
  </g>

  <!-- EMPIRE STATE BUILDING - center left -->
  <rect x="370" y="120" width="130" height="760" fill="url(#bldSil)"/>
  <!-- Steps -->
  <rect x="380" y="100" width="110" height="28" fill="url(#bldMidCol)"/>
  <rect x="395" y="78" width="80" height="25" fill="url(#bldMidCol)"/>
  <rect x="408" y="58" width="55" height="22" fill="url(#bldSil)"/>
  <rect x="418" y="42" width="35" height="18" fill="url(#bldSil)"/>
  <rect x="426" y="30" width="18" height="14" fill="url(#bldSil)"/>
  <!-- Empire State spire -->
  <line x1="435" y1="30" x2="435" y2="-10" stroke="#ff4444" stroke-width="3.5" filter="url(#glow)"/>
  <circle cx="435" cy="-12" r="4" fill="#ff2222" filter="url(#strongGlow)"/>
  <circle cx="435" cy="-12" r="12" fill="#ff2222" fill-opacity="0.3" filter="url(#strongGlow)"/>
  <!-- Windows dense grid -->
  <g fill="#ffcc44" opacity="0.55">
    <rect x="385" y="135" width="9" height="14" rx="1"/>
    <rect x="398" y="135" width="9" height="14" rx="1"/>
    <rect x="411" y="135" width="9" height="14" rx="1"/>
    <rect x="424" y="135" width="9" height="14" rx="1"/>
    <rect x="437" y="135" width="9" height="14" rx="1"/>
    <rect x="450" y="135" width="9" height="14" rx="1"/>
    <rect x="463" y="135" width="9" height="14" rx="1"/>
    <rect x="385" y="162" width="9" height="14" rx="1"/>
    <rect x="411" y="162" width="9" height="14" rx="1"/>
    <rect x="437" y="162" width="9" height="14" rx="1"/>
    <rect x="463" y="162" width="9" height="14" rx="1"/>
    <rect x="398" y="189" width="9" height="14" rx="1"/>
    <rect x="424" y="189" width="9" height="14" rx="1"/>
    <rect x="450" y="189" width="9" height="14" rx="1"/>
    <rect x="385" y="216" width="9" height="14" rx="1"/>
    <rect x="411" y="216" width="9" height="14" rx="1"/>
    <rect x="437" y="216" width="9" height="14" rx="1"/>
    <rect x="463" y="216" width="9" height="14" rx="1"/>
    <rect x="398" y="243" width="9" height="14" rx="1"/>
    <rect x="424" y="243" width="9" height="14" rx="1"/>
    <rect x="450" y="243" width="9" height="14" rx="1"/>
    <rect x="385" y="270" width="9" height="14" rx="1"/>
    <rect x="437" y="270" width="9" height="14" rx="1"/>
    <rect x="463" y="270" width="9" height="14" rx="1"/>
  </g>

  <!-- Mid buildings cluster -->
  <rect x="490" y="250" width="80" height="620" fill="url(#bldSil)"/>
  <rect x="480" y="230" width="60" height="30" fill="url(#bldMidCol)"/>
  <!-- Water tower -->
  <polygon points="492,230 520,230 512,208 500,208" fill="#1a0830"/>

  <rect x="560" y="200" width="95" height="670" fill="url(#bldMidCol)"/>
  <rect x="572" y="178" width="75" height="26" fill="url(#bldSil)"/>
  <rect x="583" y="160" width="55" height="20" fill="url(#bldSil)"/>
  <!-- Small spire -->
  <line x1="610" y1="160" x2="610" y2="130" stroke="#aaaaaa" stroke-width="2"/>
  <g fill="#ffdd88" opacity="0.5">
    <rect x="572" y="215" width="10" height="15" rx="1"/>
    <rect x="586" y="215" width="10" height="15" rx="1"/>
    <rect x="600" y="215" width="10" height="15" rx="1"/>
    <rect x="614" y="215" width="10" height="15" rx="1"/>
    <rect x="628" y="215" width="10" height="15" rx="1"/>
    <rect x="572" y="245" width="10" height="15" rx="1"/>
    <rect x="600" y="245" width="10" height="15" rx="1"/>
    <rect x="628" y="245" width="10" height="15" rx="1"/>
    <rect x="586" y="275" width="10" height="15" rx="1"/>
    <rect x="614" y="275" width="10" height="15" rx="1"/>
  </g>

  <!-- ONE WORLD TRADE CENTER style - tall rectangular -->
  <polygon points="640,50 700,50 720,870 620,870" fill="url(#bldSil)"/>
  <!-- Reflective glass face -->
  <polygon points="645,55 695,55 715,865 625,865" fill="#2d1b4e" fill-opacity="0.6"/>
  <!-- Reflection of sunset -->
  <polygon points="648,58 692,58 710,500 630,500" fill="#ff8800" fill-opacity="0.12"/>
  <!-- Vertical seams -->
  <line x1="660" y1="50" x2="640" y2="870" stroke="#1a0830" stroke-width="1" opacity="0.5"/>
  <line x1="680" y1="50" x2="670" y2="870" stroke="#1a0830" stroke-width="1" opacity="0.5"/>
  <!-- Antenna -->
  <line x1="670" y1="50" x2="670" y2="-20" stroke="#ff4444" stroke-width="3" filter="url(#glow)"/>
  <circle cx="670" cy="-22" r="5" fill="#ff2222" filter="url(#strongGlow)"/>
  <!-- Windows slight -->
  <g fill="#ff9944" opacity="0.2">
    <rect x="643" y="80" width="8" height="12" rx="1"/>
    <rect x="655" y="80" width="8" height="12" rx="1"/>
    <rect x="667" y="80" width="8" height="12" rx="1"/>
    <rect x="679" y="80" width="8" height="12" rx="1"/>
    <rect x="643" y="108" width="8" height="12" rx="1"/>
    <rect x="667" y="108" width="8" height="12" rx="1"/>
    <rect x="655" y="136" width="8" height="12" rx="1"/>
    <rect x="679" y="136" width="8" height="12" rx="1"/>
  </g>

  <!-- Right side buildings -->
  <rect x="730" y="210" width="100" height="660" fill="url(#bldSil)"/>
  <rect x="742" y="188" width="80" height="26" fill="url(#bldMidCol)"/>
  <rect x="756" y="170" width="55" height="20" fill="url(#bldSil)"/>

  <rect x="820" y="260" width="85" height="610" fill="url(#bldMidCol)"/>
  <polygon points="820,260 862,210 905,260" fill="url(#bldSil)"/>
  <!-- Gargoyle top -->
  <line x1="862" y1="210" x2="862" y2="180" stroke="#888" stroke-width="2"/>

  <rect x="890" y="180" width="120" height="690" fill="url(#bldSil)"/>
  <!-- Art deco top -->
  <rect x="900" y="160" width="100" height="24" fill="url(#bldMidCol)"/>
  <rect x="913" y="138" width="75" height="24" fill="url(#bldMidCol)"/>
  <rect x="924" y="118" width="55" height="22" fill="url(#bldSil)"/>
  <rect x="933" y="100" width="38" height="20" fill="url(#bldSil)"/>
  <line x1="952" y1="100" x2="952" y2="65" stroke="#d4af37" stroke-width="2.5" filter="url(#glow)"/>
  <g fill="#ffcc44" opacity="0.55">
    <rect x="903" y="196" width="10" height="15" rx="1"/>
    <rect x="917" y="196" width="10" height="15" rx="1"/>
    <rect x="931" y="196" width="10" height="15" rx="1"/>
    <rect x="945" y="196" width="10" height="15" rx="1"/>
    <rect x="959" y="196" width="10" height="15" rx="1"/>
    <rect x="973" y="196" width="10" height="15" rx="1"/>
    <rect x="903" y="224" width="10" height="15" rx="1"/>
    <rect x="931" y="224" width="10" height="15" rx="1"/>
    <rect x="959" y="224" width="10" height="15" rx="1"/>
  </g>

  <rect x="1000" y="240" width="90" height="630" fill="url(#bldSil)"/>
  <!-- Water tower pair -->
  <polygon points="1005,240 1030,240 1023,218 1012,218" fill="#1a0830"/>
  <polygon points="1045,240 1070,240 1063,218 1052,218" fill="#1a0830"/>

  <rect x="1080" y="200" width="110" height="670" fill="url(#bldMidCol)"/>
  <rect x="1092" y="178" width="90" height="26" fill="url(#bldSil)"/>
  <rect x="1103" y="158" width="70" height="22" fill="url(#bldSil)"/>
  <line x1="1137" y1="158" x2="1137" y2="128" stroke="#888" stroke-width="2"/>
  <g fill="#ffcc44" opacity="0.5">
    <rect x="1092" y="215" width="10" height="14" rx="1"/>
    <rect x="1106" y="215" width="10" height="14" rx="1"/>
    <rect x="1120" y="215" width="10" height="14" rx="1"/>
    <rect x="1134" y="215" width="10" height="14" rx="1"/>
    <rect x="1148" y="215" width="10" height="14" rx="1"/>
    <rect x="1092" y="242" width="10" height="14" rx="1"/>
    <rect x="1120" y="242" width="10" height="14" rx="1"/>
    <rect x="1148" y="242" width="10" height="14" rx="1"/>
  </g>

  <rect x="1180" y="260" width="95" height="610" fill="url(#bldSil)"/>
  <rect x="1265" y="230" width="80" height="640" fill="url(#bldMidCol)"/>
  <rect x="1330" y="280" width="80" height="590" fill="url(#bldSil)"/>
  <!-- Water tower -->
  <polygon points="1275,230 1300,230 1293,210 1282,210" fill="#1a0830"/>

  <!-- BROOKLYN BRIDGE - foreground hero element -->
  <!-- River below bridge -->
  <rect x="0" y="680" width="1400" height="220" fill="url(#riverGrad)"/>
  <!-- Sunset reflection on water -->
  <rect x="0" y="680" width="1400" height="220" fill="url(#waterReflect)"/>
  <!-- Water ripples -->
  <g stroke="#1d3557" stroke-width="1" fill="none" opacity="0.4">
    <ellipse cx="300" cy="750" rx="120" ry="12"/>
    <ellipse cx="700" cy="780" rx="200" ry="18"/>
    <ellipse cx="1100" cy="760" rx="150" ry="14"/>
  </g>
  <!-- Light shimmer on water -->
  <g fill="#ff8800" opacity="0.15">
    <ellipse cx="700" cy="730" rx="180" ry="30"/>
    <ellipse cx="700" cy="760" rx="120" ry="20"/>
    <ellipse cx="700" cy="790" rx="80" ry="15"/>
  </g>

  <!-- Bridge roadway -->
  <rect x="0" y="660" width="1400" height="28" fill="#1a0830"/>
  <rect x="0" y="658" width="1400" height="6" fill="#2d1b4e"/>
  <!-- Bridge center line -->
  <line x1="0" y1="673" x2="1400" y2="673" stroke="#c0a060" stroke-width="1" stroke-dasharray="20,15" opacity="0.6"/>

  <!-- Brooklyn Bridge TOWERS -->
  <!-- Left tower -->
  <rect x="280" y="440" width="55" height="230" fill="#1a0830"/>
  <!-- Gothic arches -->
  <path d="M280,560 Q307,520 335,560" fill="#0d0820" stroke="#2d1b4e" stroke-width="1"/>
  <path d="M285,610 Q307,580 330,610" fill="#0d0820" stroke="#2d1b4e" stroke-width="1"/>
  <!-- Tower top details -->
  <rect x="278" y="430" width="60" height="15" fill="#2d1b4e"/>
  <rect x="282" y="418" width="52" height="14" fill="#1a0830"/>
  <rect x="286" y="406" width="44" height="14" fill="#2d1b4e"/>
  <rect x="290" y="396" width="36" height="12" fill="#1a0830"/>
  <!-- Pinnacles -->
  <polygon points="290,396 307,375 308,396" fill="#1a0830"/>
  <polygon points="308,396 309,375 327,396" fill="#2d1b4e"/>

  <!-- Right tower -->
  <rect x="1065" y="440" width="55" height="230" fill="#1a0830"/>
  <path d="M1065,560 Q1092,520 1120,560" fill="#0d0820" stroke="#2d1b4e" stroke-width="1"/>
  <path d="M1070,610 Q1092,580 1115,610" fill="#0d0820" stroke="#2d1b4e" stroke-width="1"/>
  <rect x="1063" y="430" width="60" height="15" fill="#2d1b4e"/>
  <rect x="1067" y="418" width="52" height="14" fill="#1a0830"/>
  <rect x="1071" y="406" width="44" height="14" fill="#2d1b4e"/>
  <rect x="1075" y="396" width="36" height="12" fill="#1a0830"/>
  <polygon points="1075,396 1092,375 1093,396" fill="#1a0830"/>
  <polygon points="1093,396 1094,375 1112,396" fill="#2d1b4e"/>

  <!-- Bridge suspension cables - main -->
  <path d="M307,385 Q550,610 700,665 Q850,610 1092,385" fill="none" stroke="#c0a060" stroke-width="3" opacity="0.9"/>
  <path d="M307,385 Q550,590 700,650 Q850,590 1092,385" fill="none" stroke="#8b6914" stroke-width="1.5" opacity="0.5"/>
  <!-- Vertical hanger cables -->
  <g stroke="#c0a060" stroke-width="1" opacity="0.6">
    <line x1="340" y1="420" x2="340" y2="660"/>
    <line x1="370" y1="440" x2="370" y2="660"/>
    <line x1="400" y1="455" x2="400" y2="660"/>
    <line x1="430" y1="465" x2="430" y2="660"/>
    <line x1="460" y1="473" x2="460" y2="660"/>
    <line x1="490" y1="478" x2="490" y2="660"/>
    <line x1="520" y1="483" x2="520" y2="660"/>
    <line x1="550" y1="487" x2="550" y2="660"/>
    <line x1="580" y1="490" x2="580" y2="660"/>
    <line x1="610" y1="492" x2="610" y2="660"/>
    <line x1="640" y1="495" x2="640" y2="660"/>
    <line x1="670" y1="495" x2="670" y2="660"/>
    <line x1="700" y1="495" x2="700" y2="660"/>
    <line x1="730" y1="495" x2="730" y2="660"/>
    <line x1="760" y1="494" x2="760" y2="660"/>
    <line x1="790" y1="492" x2="790" y2="660"/>
    <line x1="820" y1="490" x2="820" y2="660"/>
    <line x1="850" y1="487" x2="850" y2="660"/>
    <line x1="880" y1="483" x2="880" y2="660"/>
    <line x1="910" y1="478" x2="910" y2="660"/>
    <line x1="940" y1="472" x2="940" y2="660"/>
    <line x1="970" y1="463" x2="970" y2="660"/>
    <line x1="1000" y1="452" x2="1000" y2="660"/>
    <line x1="1030" y1="438" x2="1030" y2="660"/>
    <line x1="1060" y1="420" x2="1060" y2="660"/>
  </g>

  <!-- SPIDER-MAN swinging! - Miles Morales black & red suit -->
  <g transform="translate(530 480) rotate(25)">
    <!-- Web line -->
    <path d="M0,0 Q-80,-60 -160,-120" fill="none" stroke="#cc0000" stroke-width="2.5" opacity="0.9" filter="url(#tinyGlow)"/>
    <!-- Body - black suit with red -->
    <ellipse cx="0" cy="0" rx="12" ry="16" fill="#111111"/>
    <!-- Red patches Miles style -->
    <ellipse cx="0" cy="-2" rx="8" ry="10" fill="#cc0000" opacity="0.9"/>
    <!-- Head -->
    <circle cx="0" cy="-20" r="10" fill="#111111"/>
    <!-- Red chest symbol area -->
    <!-- Spider symbol -->
    <line x1="-5" y1="-3" x2="5" y2="-3" stroke="#cc0000" stroke-width="2"/>
    <line x1="0" y1="-8" x2="0" y2="5" stroke="#cc0000" stroke-width="1.5"/>
    <!-- Arm out -->
    <line x1="0" y1="-5" x2="-22" y2="-20" stroke="#cc0000" stroke-width="4" stroke-linecap="round"/>
    <line x1="0" y1="-5" x2="14" y2="8" stroke="#111111" stroke-width="4" stroke-linecap="round"/>
    <!-- Legs trailing -->
    <line x1="0" y1="10" x2="-10" y2="26" stroke="#111111" stroke-width="3.5" stroke-linecap="round"/>
    <line x1="0" y1="10" x2="10" y2="25" stroke="#111111" stroke-width="3.5" stroke-linecap="round"/>
    <!-- White eyes Miles style - larger rounder -->
    <ellipse cx="-3.5" cy="-21" rx="3.5" ry="3" fill="white"/>
    <ellipse cx="3.5" cy="-21" rx="3.5" ry="3" fill="white"/>
  </g>

  <!-- Second web line in distance -->
  <path d="M900 350 Q980,270 1100,200" fill="none" stroke="#cc0000" stroke-width="1.5" opacity="0.5" filter="url(#tinyGlow)"/>

  <!-- Comic panel lines - thick black border -->
  <rect width="1400" height="900" fill="none" stroke="black" stroke-width="8"/>

  <!-- Comic caption box -->
  <rect x="20" y="20" width="340" height="55" fill="#cc0000" rx="4"/>
  <rect x="22" y="22" width="336" height="51" fill="#cc0000" rx="3"/>
  <text x="190" y="42" font-family="'Impact', 'Arial Black', sans-serif" font-size="13" fill="white" text-anchor="middle" letter-spacing="3">NEW YORK CITY</text>
  <text x="190" y="62" font-family="'Impact', 'Arial Black', sans-serif" font-size="11" fill="#ffcc00" text-anchor="middle" letter-spacing="2">EARTH-1610 — BROOKLYN</text>

  <!-- Spider symbol bottom center -->
  <g transform="translate(700 855)" fill="white" opacity="0.6">
    <ellipse cx="0" cy="-8" rx="14" ry="9"/>
    <ellipse cx="0" cy="3" rx="18" ry="9"/>
    <line x1="-20" y1="-14" x2="-8" y2="-6" stroke="white" stroke-width="2.5"/>
    <line x1="20" y1="-14" x2="8" y2="-6" stroke="white" stroke-width="2.5"/>
    <line x1="-22" y1="-4" x2="-8" y2="-3" stroke="white" stroke-width="2.5"/>
    <line x1="22" y1="-4" x2="8" y2="-3" stroke="white" stroke-width="2.5"/>
    <line x1="-20" y1="8" x2="-8" y2="4" stroke="white" stroke-width="2.5"/>
    <line x1="20" y1="8" x2="8" y2="4" stroke="white" stroke-width="2.5"/>
  </g>
</svg>
