<svg xmlns="http://www.w3.org/2000/svg" viewBox="0 0 1400 900" width="1400" height="900">
  <defs>
    <!-- Sky gradient - deep cyber night -->
    <linearGradient id="sky2099" x1="0" y1="0" x2="0" y2="1">
      <stop offset="0%" stop-color="#000008"/>
      <stop offset="40%" stop-color="#060020"/>
      <stop offset="70%" stop-color="#0d0035"/>
      <stop offset="100%" stop-color="#1a0050"/>
    </linearGradient>
    <!-- Ground glow -->
    <linearGradient id="groundGlow" x1="0" y1="0" x2="0" y2="1">
      <stop offset="0%" stop-color="#ff3000" stop-opacity="0.6"/>
      <stop offset="100%" stop-color="#1a0000" stop-opacity="1"/>
    </linearGradient>
    <!-- Building gradient dark -->
    <linearGradient id="bldDark" x1="0" y1="0" x2="0" y2="1">
      <stop offset="0%" stop-color="#0a0025"/>
      <stop offset="100%" stop-color="#000010"/>
    </linearGradient>
    <!-- Building gradient mid -->
    <linearGradient id="bldMid" x1="0" y1="0" x2="0" y2="1">
      <stop offset="0%" stop-color="#110030"/>
      <stop offset="100%" stop-color="#050015"/>
    </linearGradient>
    <!-- Neon red glow filter -->
    <filter id="redGlow" x="-50%" y="-50%" width="200%" height="200%">
      <feGaussianBlur stdDeviation="4" result="blur"/>
      <feMerge><feMergeNode in="blur"/><feMergeNode in="SourceGraphic"/></feMerge>
    </filter>
    <filter id="blueGlow" x="-50%" y="-50%" width="200%" height="200%">
      <feGaussianBlur stdDeviation="6" result="blur"/>
      <feMerge><feMergeNode in="blur"/><feMergeNode in="SourceGraphic"/></feMerge>
    </filter>
    <filter id="softGlow" x="-100%" y="-100%" width="300%" height="300%">
      <feGaussianBlur stdDeviation="12" result="blur"/>
      <feMerge><feMergeNode in="blur"/><feMergeNode in="SourceGraphic"/></feMerge>
    </filter>
    <filter id="tinyGlow">
      <feGaussianBlur stdDeviation="2" result="blur"/>
      <feMerge><feMergeNode in="blur"/><feMergeNode in="SourceGraphic"/></feMerge>
    </filter>
    <!-- Scanline pattern -->
    <pattern id="scanlines" x="0" y="0" width="1400" height="4" patternUnits="userSpaceOnUse">
      <rect width="1400" height="2" fill="black" fill-opacity="0.15"/>
    </pattern>
    <!-- Grid pattern for floors -->
    <pattern id="windowGrid" x="0" y="0" width="16" height="24" patternUnits="userSpaceOnUse">
      <rect width="14" height="20" fill="#ff3a00" fill-opacity="0.08" rx="1"/>
      <rect width="14" height="20" fill="#0040ff" fill-opacity="0.06" rx="1"/>
    </pattern>
    <pattern id="windowGridBlue" x="0" y="0" width="14" height="22" patternUnits="userSpaceOnUse">
      <rect width="11" height="17" x="1" y="2" fill="#0088ff" fill-opacity="0.25" rx="1"/>
    </pattern>
    <pattern id="windowGridRed" x="0" y="0" width="14" height="22" patternUnits="userSpaceOnUse">
      <rect width="11" height="17" x="1" y="2" fill="#ff4400" fill-opacity="0.3" rx="1"/>
    </pattern>
    <!-- Moon glow -->
    <radialGradient id="moonGlow" cx="50%" cy="50%" r="50%">
      <stop offset="0%" stop-color="#ffffff" stop-opacity="1"/>
      <stop offset="40%" stop-color="#aaddff" stop-opacity="0.6"/>
      <stop offset="100%" stop-color="#0044ff" stop-opacity="0"/>
    </radialGradient>
    <!-- Horizon city glow -->
    <radialGradient id="horizonGlow" cx="50%" cy="100%" r="60%">
      <stop offset="0%" stop-color="#ff2200" stop-opacity="0.5"/>
      <stop offset="50%" stop-color="#6600ff" stop-opacity="0.2"/>
      <stop offset="100%" stop-color="transparent"/>
    </radialGradient>
  </defs>

  <!-- SKY -->
  <rect width="1400" height="900" fill="url(#sky2099)"/>
  
  <!-- Stars -->
  <g opacity="0.8">
    <circle cx="80" cy="40" r="1" fill="white" opacity="0.9"/>
    <circle cx="200" cy="25" r="1.5" fill="#aaddff" opacity="0.7"/>
    <circle cx="340" cy="60" r="1" fill="white" opacity="0.8"/>
    <circle cx="450" cy="20" r="2" fill="white" opacity="0.6"/>
    <circle cx="600" cy="45" r="1" fill="#ffaaff" opacity="0.8"/>
    <circle cx="750" cy="15" r="1.5" fill="white" opacity="0.9"/>
    <circle cx="900" cy="55" r="1" fill="#aaffff" opacity="0.7"/>
    <circle cx="1050" cy="30" r="2" fill="white" opacity="0.6"/>
    <circle cx="1200" cy="50" r="1" fill="#ffccaa" opacity="0.8"/>
    <circle cx="1320" cy="25" r="1.5" fill="white" opacity="0.9"/>
    <circle cx="150" cy="90" r="1" fill="#aaddff" opacity="0.5"/>
    <circle cx="520" cy="80" r="1" fill="white" opacity="0.6"/>
    <circle cx="820" cy="95" r="1.5" fill="white" opacity="0.5"/>
    <circle cx="1100" cy="75" r="1" fill="#ccaaff" opacity="0.7"/>
    <circle cx="1380" cy="85" r="1" fill="white" opacity="0.6"/>
  </g>

  <!-- Moon -->
  <circle cx="1180" cy="100" r="55" fill="url(#moonGlow)" opacity="0.9"/>
  <circle cx="1180" cy="100" r="30" fill="#e8f4ff" opacity="0.95"/>
  <circle cx="1170" cy="92" r="5" fill="#c0d8f0" opacity="0.5"/>
  <circle cx="1190" cy="108" r="3" fill="#c0d8f0" opacity="0.4"/>

  <!-- Horizon atmospheric glow -->
  <ellipse cx="700" cy="900" rx="900" ry="400" fill="url(#horizonGlow)"/>

  <!-- Flying vehicles / traffic lanes - distant -->
  <g opacity="0.6" filter="url(#tinyGlow)">
    <line x1="0" y1="320" x2="1400" y2="310" stroke="#ff4400" stroke-width="0.5" stroke-dasharray="30,60" opacity="0.5"/>
    <line x1="0" y1="335" x2="1400" y2="325" stroke="#0066ff" stroke-width="0.5" stroke-dasharray="20,80" opacity="0.5"/>
    <!-- Moving cars (small dots) -->
    <circle cx="120" cy="320" r="2.5" fill="#ff6600"/>
    <circle cx="280" cy="318" r="2" fill="#ff3300"/>
    <circle cx="600" cy="322" r="2.5" fill="#ff5500"/>
    <circle cx="900" cy="315" r="2" fill="#ff4400"/>
    <circle cx="1100" cy="320" r="2.5" fill="#ff6600"/>
    <circle cx="350" cy="333" r="2" fill="#4488ff"/>
    <circle cx="750" cy="330" r="2.5" fill="#2266ff"/>
    <circle cx="1050" cy="328" r="2" fill="#3377ff"/>
  </g>

  <!-- BACKGROUND buildings - far distance -->
  <g opacity="0.4">
    <rect x="0" y="280" width="80" height="450" fill="#050018"/>
    <rect x="60" y="310" width="60" height="420" fill="#060020"/>
    <rect x="100" y="250" width="50" height="480" fill="#040015"/>
    <rect x="200" y="290" width="90" height="460" fill="#050018"/>
    <rect x="260" y="260" width="70" height="490" fill="#060020"/>
    <rect x="1100" y="270" width="90" height="470" fill="#050018"/>
    <rect x="1160" y="240" width="70" height="500" fill="#040015"/>
    <rect x="1240" y="280" width="80" height="460" fill="#060020"/>
    <rect x="1300" y="260" width="100" height="480" fill="#050018"/>
  </g>

  <!-- MID buildings layer -->
  <!-- Left cluster -->
  <rect x="-10" y="180" width="110" height="620" fill="url(#bldDark)"/>
  <rect x="0" y="180" width="110" height="620" fill="url(#bldMid)"/>
  <!-- Windows blue tint -->
  <rect x="5" y="200" width="95" height="580" fill="url(#windowGridBlue)" opacity="0.4"/>
  <!-- Neon edge lines -->
  <line x1="110" y1="180" x2="110" y2="800" stroke="#0066ff" stroke-width="1.5" opacity="0.7" filter="url(#tinyGlow)"/>
  <line x1="0" y1="180" x2="110" y2="180" stroke="#0066ff" stroke-width="1.5" opacity="0.5" filter="url(#tinyGlow)"/>
  <!-- Rooftop antenna -->
  <line x1="55" y1="180" x2="55" y2="120" stroke="#ff3300" stroke-width="2" filter="url(#redGlow)"/>
  <circle cx="55" cy="118" r="4" fill="#ff3300" filter="url(#redGlow)"/>

  <rect x="90" y="240" width="85" height="560" fill="url(#bldDark)"/>
  <rect x="90" y="240" width="85" height="560" fill="url(#windowGridRed)" opacity="0.3"/>
  <line x1="90" y1="240" x2="175" y2="240" stroke="#ff4400" stroke-width="1" opacity="0.6" filter="url(#tinyGlow)"/>

  <!-- Tall central-left tower -->
  <rect x="160" y="100" width="120" height="700" fill="#0a0030"/>
  <rect x="160" y="100" width="120" height="700" fill="url(#windowGridBlue)" opacity="0.5"/>
  <line x1="160" y1="100" x2="280" y2="100" stroke="#00aaff" stroke-width="2" filter="url(#blueGlow)"/>
  <line x1="160" y1="100" x2="160" y2="800" stroke="#00aaff" stroke-width="1.5" filter="url(#blueGlow)"/>
  <line x1="280" y1="100" x2="280" y2="800" stroke="#00aaff" stroke-width="1.5" filter="url(#blueGlow)"/>
  <!-- Horizontal bands on tower -->
  <line x1="160" y1="250" x2="280" y2="250" stroke="#0066ff" stroke-width="0.8" opacity="0.5"/>
  <line x1="160" y1="400" x2="280" y2="400" stroke="#0066ff" stroke-width="0.8" opacity="0.5"/>
  <line x1="160" y1="550" x2="280" y2="550" stroke="#0066ff" stroke-width="0.8" opacity="0.5"/>
  <!-- Spire -->
  <polygon points="220,100 205,50 235,50" fill="#0a0030"/>
  <line x1="220" y1="50" x2="220" y2="10" stroke="#ff0000" stroke-width="2.5" filter="url(#redGlow)"/>
  <circle cx="220" cy="8" r="5" fill="#ff0000" filter="url(#redGlow)"/>
  <!-- Red antenna blink glow -->
  <circle cx="220" cy="8" r="10" fill="#ff0000" fill-opacity="0.3" filter="url(#softGlow)"/>

  <!-- ALCHEMAX TOWER - dominant center-left skyscraper, very tall -->
  <rect x="290" y="60" width="160" height="740" fill="#080022"/>
  <rect x="290" y="60" width="160" height="740" fill="url(#windowGridBlue)" opacity="0.6"/>
  <!-- Alchemax corporate face - stepped pyramid top -->
  <polygon points="290,60 370,0 450,60" fill="#060018"/>
  <line x1="290" y1="60" x2="370" y2="0" stroke="#cc0000" stroke-width="2" filter="url(#redGlow)"/>
  <line x1="370" y1="0" x2="450" y2="60" stroke="#cc0000" stroke-width="2" filter="url(#redGlow)"/>
  <!-- Vertical neon stripes -->
  <line x1="330" y1="60" x2="330" y2="800" stroke="#ff2200" stroke-width="1" opacity="0.35" filter="url(#tinyGlow)"/>
  <line x1="370" y1="60" x2="370" y2="800" stroke="#ff2200" stroke-width="1.5" opacity="0.5" filter="url(#tinyGlow)"/>
  <line x1="410" y1="60" x2="410" y2="800" stroke="#ff2200" stroke-width="1" opacity="0.35" filter="url(#tinyGlow)"/>
  <!-- Side neon lines -->
  <line x1="290" y1="60" x2="290" y2="800" stroke="#ff2200" stroke-width="2" opacity="0.7" filter="url(#tinyGlow)"/>
  <line x1="450" y1="60" x2="450" y2="800" stroke="#ff2200" stroke-width="2" opacity="0.7" filter="url(#tinyGlow)"/>
  <!-- Alchemax sign glow -->
  <rect x="305" y="120" width="130" height="35" fill="#ff2200" fill-opacity="0.12" rx="2"/>
  <text x="370" y="143" font-family="'Courier New', monospace" font-size="14" fill="#ff4400" text-anchor="middle" filter="url(#redGlow)" letter-spacing="3" font-weight="bold">ALCHEMAX</text>
  <!-- Horizontal bands -->
  <line x1="290" y1="200" x2="450" y2="200" stroke="#ff3300" stroke-width="1" opacity="0.4"/>
  <line x1="290" y1="350" x2="450" y2="350" stroke="#ff3300" stroke-width="1" opacity="0.4"/>
  <line x1="290" y1="500" x2="450" y2="500" stroke="#ff3300" stroke-width="1" opacity="0.4"/>
  <line x1="290" y1="650" x2="450" y2="650" stroke="#ff3300" stroke-width="1" opacity="0.4"/>
  <!-- Rooftop structure -->
  <rect x="330" y="0" width="80" height="60" fill="#050015"/>
  <line x1="370" y1="0" x2="370" y2="-40" stroke="#ff0000" stroke-width="3" filter="url(#redGlow)"/>
  <circle cx="370" cy="-42" r="6" fill="#ff0000" filter="url(#redGlow)"/>

  <!-- Mid buildings right of Alchemax -->
  <rect x="440" y="200" width="90" height="600" fill="#0c0028"/>
  <rect x="440" y="200" width="90" height="600" fill="url(#windowGridBlue)" opacity="0.45"/>
  <line x1="440" y1="200" x2="530" y2="200" stroke="#00bbff" stroke-width="1.5" opacity="0.6" filter="url(#tinyGlow)"/>

  <rect x="510" y="150" width="100" height="650" fill="#080020"/>
  <rect x="510" y="150" width="100" height="650" fill="url(#windowGridRed)" opacity="0.35"/>
  <line x1="510" y1="150" x2="610" y2="150" stroke="#ff4400" stroke-width="1.5" opacity="0.5" filter="url(#tinyGlow)"/>

  <!-- CENTRAL MEGA TOWER -->
  <rect x="600" y="40" width="200" height="760" fill="#060018"/>
  <rect x="600" y="40" width="200" height="760" fill="url(#windowGridBlue)" opacity="0.55"/>
  <!-- Stepped top -->
  <rect x="620" y="20" width="160" height="40" fill="#080022"/>
  <rect x="650" y="0" width="100" height="30" fill="#0a0025"/>
  <!-- Central spire massive -->
  <line x1="700" y1="0" x2="700" y2="-60" stroke="#ffffff" stroke-width="3" filter="url(#softGlow)"/>
  <circle cx="700" cy="-62" r="7" fill="#ff0000" filter="url(#softGlow)"/>
  <!-- Side neon lines blue -->
  <line x1="600" y1="40" x2="600" y2="800" stroke="#0088ff" stroke-width="2" filter="url(#blueGlow)"/>
  <line x1="800" y1="40" x2="800" y2="800" stroke="#0088ff" stroke-width="2" filter="url(#blueGlow)"/>
  <!-- Cross beams neon -->
  <line x1="600" y1="40" x2="800" y2="40" stroke="#0088ff" stroke-width="2" filter="url(#blueGlow)"/>
  <line x1="600" y1="250" x2="800" y2="250" stroke="#0044ff" stroke-width="0.8" opacity="0.5"/>
  <line x1="600" y1="460" x2="800" y2="460" stroke="#0044ff" stroke-width="0.8" opacity="0.5"/>
  <line x1="600" y1="670" x2="800" y2="670" stroke="#0044ff" stroke-width="0.8" opacity="0.5"/>
  <!-- Vertical accent lines -->
  <line x1="650" y1="40" x2="650" y2="800" stroke="#0044ff" stroke-width="0.8" opacity="0.4"/>
  <line x1="700" y1="40" x2="700" y2="800" stroke="#0066ff" stroke-width="1.5" opacity="0.5" filter="url(#tinyGlow)"/>
  <line x1="750" y1="40" x2="750" y2="800" stroke="#0044ff" stroke-width="0.8" opacity="0.4"/>
  <!-- "2099" hologram display -->
  <rect x="630" y="80" width="140" height="50" fill="#0044ff" fill-opacity="0.1" rx="3"/>
  <text x="700" y="112" font-family="'Courier New', monospace" font-size="22" fill="#00aaff" text-anchor="middle" filter="url(#blueGlow)" letter-spacing="4" font-weight="bold">2099</text>

  <!-- Right cluster buildings -->
  <rect x="790" y="160" width="110" height="640" fill="#090022"/>
  <rect x="790" y="160" width="110" height="640" fill="url(#windowGridRed)" opacity="0.4"/>
  <line x1="790" y1="160" x2="900" y2="160" stroke="#ff3300" stroke-width="1.5" opacity="0.6" filter="url(#tinyGlow)"/>

  <rect x="880" y="120" width="130" height="680" fill="#070020"/>
  <rect x="880" y="120" width="130" height="680" fill="url(#windowGridBlue)" opacity="0.5"/>
  <line x1="880" y1="120" x2="1010" y2="120" stroke="#0099ff" stroke-width="1.5" opacity="0.5" filter="url(#tinyGlow)"/>
  <line x1="880" y1="120" x2="880" y2="800" stroke="#0099ff" stroke-width="1.5" opacity="0.5" filter="url(#tinyGlow)"/>
  <!-- Rooftop structures -->
  <polygon points="880,120 945,70 1010,120" fill="#050018"/>
  <line x1="945" y1="70" x2="945" y2="30" stroke="#ff5500" stroke-width="2" filter="url(#redGlow)"/>
  <circle cx="945" cy="28" r="4" fill="#ff5500" filter="url(#redGlow)"/>

  <rect x="980" y="200" width="95" height="600" fill="#0c0030"/>
  <rect x="980" y="200" width="95" height="600" fill="url(#windowGridBlue)" opacity="0.4"/>

  <rect x="1050" y="150" width="120" height="650" fill="#080022"/>
  <rect x="1050" y="150" width="120" height="650" fill="url(#windowGridRed)" opacity="0.38"/>
  <line x1="1050" y1="150" x2="1170" y2="150" stroke="#ff4400" stroke-width="2" opacity="0.6" filter="url(#tinyGlow)"/>
  <line x1="1170" y1="150" x2="1170" y2="800" stroke="#ff4400" stroke-width="1.5" opacity="0.5" filter="url(#tinyGlow)"/>
  <!-- Stepped top -->
  <rect x="1070" y="130" width="80" height="25" fill="#060018"/>
  <line x1="1110" y1="130" x2="1110" y2="90" stroke="#ff0000" stroke-width="2" filter="url(#redGlow)"/>
  <circle cx="1110" cy="88" r="4" fill="#ff0000" filter="url(#redGlow)"/>

  <!-- Far right tall tower -->
  <rect x="1140" y="80" width="150" height="720" fill="#060018"/>
  <rect x="1140" y="80" width="150" height="720" fill="url(#windowGridBlue)" opacity="0.55"/>
  <line x1="1140" y1="80" x2="1290" y2="80" stroke="#00ccff" stroke-width="2" filter="url(#blueGlow)"/>
  <line x1="1140" y1="80" x2="1140" y2="800" stroke="#00ccff" stroke-width="1.5" filter="url(#blueGlow)"/>
  <line x1="1290" y1="80" x2="1290" y2="800" stroke="#00ccff" stroke-width="1.5" filter="url(#blueGlow)"/>
  <line x1="1215" y1="80" x2="1215" y2="800" stroke="#0066ff" stroke-width="1" opacity="0.4"/>
  <!-- Horizontal bands -->
  <line x1="1140" y1="230" x2="1290" y2="230" stroke="#00aaff" stroke-width="0.8" opacity="0.5"/>
  <line x1="1140" y1="380" x2="1290" y2="380" stroke="#00aaff" stroke-width="0.8" opacity="0.5"/>
  <line x1="1140" y1="530" x2="1290" y2="530" stroke="#00aaff" stroke-width="0.8" opacity="0.5"/>
  <!-- Pyramid top -->
  <polygon points="1140,80 1215,20 1290,80" fill="#050018"/>
  <line x1="1140" y1="80" x2="1215" y2="20" stroke="#00ccff" stroke-width="2" filter="url(#blueGlow)"/>
  <line x1="1215" y1="20" x2="1290" y2="80" stroke="#00ccff" stroke-width="2" filter="url(#blueGlow)"/>
  <line x1="1215" y1="20" x2="1215" y2="-20" stroke="#ffffff" stroke-width="2.5" filter="url(#softGlow)"/>
  <circle cx="1215" cy="-22" r="5" fill="#00ccff" filter="url(#softGlow)"/>

  <rect x="1270" y="180" width="130" height="620" fill="#090022"/>
  <rect x="1270" y="180" width="130" height="620" fill="url(#windowGridRed)" opacity="0.4"/>

  <!-- Connecting bridges / sky bridges -->
  <g filter="url(#tinyGlow)" opacity="0.8">
    <!-- Bridge 1 -->
    <path d="M280 400 Q370 380 460 400" fill="none" stroke="#ff3300" stroke-width="3"/>
    <line x1="280" y1="400" x2="460" y2="400" stroke="#ff3300" stroke-width="0.8" opacity="0.4"/>
    <!-- Bridge 2 -->
    <path d="M800 300 Q900 280 1010 300" fill="none" stroke="#0088ff" stroke-width="3"/>
    <!-- Bridge 3 -->
    <path d="M600 500 Q700 480 800 500" fill="none" stroke="#ff4400" stroke-width="2.5"/>
    <!-- Bridge 4 -->
    <path d="M1050 350 Q1140 330 1140 350" fill="none" stroke="#00aaff" stroke-width="2.5"/>
  </g>

  <!-- Flying vehicles closer -->
  <g filter="url(#tinyGlow)">
    <!-- Car lane 1 - mid height -->
    <line x1="0" y1="430" x2="1400" y2="420" stroke="#ff5500" stroke-width="1" stroke-dasharray="40,90" opacity="0.3"/>
    <circle cx="200" cy="428" r="3.5" fill="#ff6600"/>
    <ellipse cx="200" cy="428" rx="8" ry="3" fill="#ff6600" opacity="0.4"/>
    <circle cx="500" cy="425" r="3" fill="#ff4400"/>
    <circle cx="850" cy="427" r="3.5" fill="#ff5500"/>
    <circle cx="1150" cy="422" r="3" fill="#ff6600"/>
    <!-- Car lane 2 - going other direction blue -->
    <circle cx="300" cy="445" r="3" fill="#4499ff"/>
    <ellipse cx="300" cy="445" rx="7" ry="3" fill="#4499ff" opacity="0.4"/>
    <circle cx="700" cy="440" r="3.5" fill="#2277ff"/>
    <circle cx="1000" cy="443" r="3" fill="#3388ff"/>
  </g>

  <!-- GROUND / STREET LEVEL -->
  <rect x="0" y="790" width="1400" height="110" fill="#050010"/>
  <rect x="0" y="790" width="1400" height="30" fill="url(#groundGlow)"/>
  <!-- Street grid lines -->
  <line x1="0" y1="820" x2="1400" y2="820" stroke="#ff2200" stroke-width="1.5" opacity="0.6" filter="url(#tinyGlow)"/>
  <line x1="0" y1="840" x2="1400" y2="840" stroke="#ff1100" stroke-width="0.5" opacity="0.3"/>
  <!-- Vertical street lights -->
  <g fill="#ff3300" filter="url(#redGlow)">
    <rect x="178" y="760" width="3" height="40"/>
    <circle cx="179" cy="760" r="5"/>
    <rect x="358" y="770" width="3" height="30"/>
    <circle cx="359" cy="770" r="4"/>
    <rect x="538" y="760" width="3" height="40"/>
    <circle cx="539" cy="760" r="5"/>
    <rect x="718" y="765" width="3" height="35"/>
    <circle cx="719" cy="765" r="4.5"/>
    <rect x="898" y="760" width="3" height="40"/>
    <circle cx="899" cy="760" r="5"/>
    <rect x="1078" y="770" width="3" height="30"/>
    <circle cx="1079" cy="770" r="4"/>
    <rect x="1258" y="760" width="3" height="40"/>
    <circle cx="1259" cy="760" r="5"/>
  </g>

  <!-- WEB SWINGING silhouette - Spider-Man 2099 in red & blue -->
  <g transform="translate(680 380)">
    <!-- Web line -->
    <path d="M0,0 Q-120,-80 -200,-120" fill="none" stroke="#cc0000" stroke-width="2" opacity="0.9" filter="url(#tinyGlow)"/>
    <!-- Spider-Man silhouette swinging -->
    <!-- Body -->
    <ellipse cx="0" cy="0" rx="14" ry="18" fill="#cc0000"/>
    <!-- Head -->
    <circle cx="0" cy="-22" r="11" fill="#cc0000"/>
    <!-- Blue underbelly -->
    <ellipse cx="0" cy="2" rx="9" ry="12" fill="#0044cc"/>
    <!-- Arm extended -->
    <line x1="0" y1="-5" x2="-25" y2="-25" stroke="#cc0000" stroke-width="5" stroke-linecap="round"/>
    <line x1="0" y1="-5" x2="15" y2="10" stroke="#cc0000" stroke-width="5" stroke-linecap="round"/>
    <!-- Legs -->
    <line x1="0" y1="12" x2="-12" y2="30" stroke="#cc0000" stroke-width="4" stroke-linecap="round"/>
    <line x1="0" y1="12" x2="12" y2="28" stroke="#cc0000" stroke-width="4" stroke-linecap="round"/>
    <!-- White eyes - 2099 style angular -->
    <ellipse cx="-4" cy="-23" rx="4" ry="3" fill="white" transform="rotate(-15,-4,-23)"/>
    <ellipse cx="4" cy="-23" rx="4" ry="3" fill="white" transform="rotate(15,4,-23)"/>
    <!-- Body glow -->
    <ellipse cx="0" cy="0" rx="14" ry="18" fill="#cc0000" opacity="0.2" filter="url(#redGlow)"/>
  </g>

  <!-- SCANLINES overlay for retro-futuristic feel -->
  <rect width="1400" height="900" fill="url(#scanlines)" opacity="0.4"/>

  <!-- Vignette corners -->
  <radialGradient id="vignette" cx="50%" cy="50%" r="70%">
    <stop offset="60%" stop-color="transparent"/>
    <stop offset="100%" stop-color="#000008" stop-opacity="0.7"/>
  </radialGradient>
  <rect width="1400" height="900" fill="url(#vignette)"/>

  <!-- Title text -->
  <text x="700" y="875" font-family="'Courier New', monospace" font-size="13" fill="#ff3300" text-anchor="middle" filter="url(#tinyGlow)" letter-spacing="6" opacity="0.8">NUEVA YORK — EARTH 928 — 2099</text>
</svg>
