<svg xmlns="http://www.w3.org/2000/svg" viewBox="0 0 1400 900" width="1400" height="900">
  <defs>
    <!-- Sky - vibrant Indian dusk, deep teal to magenta -->
    <linearGradient id="mumbaiSky" x1="0" y1="0" x2="0" y2="1">
      <stop offset="0%" stop-color="#0d1b5e"/>
      <stop offset="25%" stop-color="#1e2d8a"/>
      <stop offset="50%" stop-color="#8b1a6b"/>
      <stop offset="75%" stop-color="#e84393"/>
      <stop offset="100%" stop-color="#ff6b35"/>
    </linearGradient>
    <!-- Warm glow at horizon -->
    <linearGradient id="horizonWarm" x1="0" y1="0" x2="0" y2="1">
      <stop offset="0%" stop-color="#ff6b35" stop-opacity="0"/>
      <stop offset="60%" stop-color="#ff6b35" stop-opacity="0.5"/>
      <stop offset="100%" stop-color="#ff4400" stop-opacity="0.8"/>
    </linearGradient>
    <!-- Building colors - colorful Indian architecture -->
    <linearGradient id="bld1" x1="0" y1="0" x2="0" y2="1">
      <stop offset="0%" stop-color="#2d1b5e"/>
      <stop offset="100%" stop-color="#1a0840"/>
    </linearGradient>
    <linearGradient id="bldSaffron" x1="0" y1="0" x2="0" y2="1">
      <stop offset="0%" stop-color="#8b3a00"/>
      <stop offset="100%" stop-color="#3d1800"/>
    </linearGradient>
    <linearGradient id="bldTeal" x1="0" y1="0" x2="0" y2="1">
      <stop offset="0%" stop-color="#004d5e"/>
      <stop offset="100%" stop-color="#001d26"/>
    </linearGradient>
    <!-- Water - Arabian Sea -->
    <linearGradient id="seaGrad" x1="0" y1="0" x2="0" y2="1">
      <stop offset="0%" stop-color="#0d2d4a"/>
      <stop offset="100%" stop-color="#060e1a"/>
    </linearGradient>
    <!-- Rangoli pattern -->
    <pattern id="rangoli" x="0" y="0" width="60" height="60" patternUnits="userSpaceOnUse">
      <circle cx="30" cy="30" r="25" fill="none" stroke="#ff6b35" stroke-width="0.5" opacity="0.2"/>
      <circle cx="30" cy="30" r="15" fill="none" stroke="#ff00aa" stroke-width="0.5" opacity="0.2"/>
      <circle cx="30" cy="30" r="5" fill="none" stroke="#ffcc00" stroke-width="0.5" opacity="0.2"/>
      <line x1="5" y1="30" x2="55" y2="30" stroke="#ff6b35" stroke-width="0.3" opacity="0.15"/>
      <line x1="30" y1="5" x2="30" y2="55" stroke="#ff6b35" stroke-width="0.3" opacity="0.15"/>
    </pattern>
    <!-- Filters -->
    <filter id="warmGlow">
      <feGaussianBlur stdDeviation="6" result="blur"/>
      <feMerge><feMergeNode in="blur"/><feMergeNode in="SourceGraphic"/></feMerge>
    </filter>
    <filter id="pinkGlow">
      <feGaussianBlur stdDeviation="8" result="blur"/>
      <feMerge><feMergeNode in="blur"/><feMergeNode in="SourceGraphic"/></feMerge>
    </filter>
    <filter id="tinyGlow">
      <feGaussianBlur stdDeviation="2.5" result="blur"/>
      <feMerge><feMergeNode in="blur"/><feMergeNode in="SourceGraphic"/></feMerge>
    </filter>
    <filter id="bigGlow">
      <feGaussianBlur stdDeviation="20" result="blur"/>
      <feMerge><feMergeNode in="blur"/><feMergeNode in="SourceGraphic"/></feMerge>
    </filter>
    <!-- Decorative arch pattern -->
    <pattern id="archPattern" x="0" y="0" width="30" height="50" patternUnits="userSpaceOnUse">
      <path d="M0,50 L0,20 Q15,0 30,20 L30,50" fill="none" stroke="#ff9900" stroke-width="0.8" opacity="0.4"/>
    </pattern>
  </defs>

  <!-- BACKGROUND SKY -->
  <rect width="1400" height="900" fill="url(#mumbaiSky)"/>

  <!-- Rangoli texture on sky -->
  <rect width="1400" height="900" fill="url(#rangoli)" opacity="0.6"/>

  <!-- Horizon warm glow -->
  <rect x="0" y="500" width="1400" height="400" fill="url(#horizonWarm)"/>

  <!-- Stars / twinkle lights -->
  <g fill="white">
    <circle cx="80" cy="50" r="1.5" opacity="0.8"/>
    <circle cx="200" cy="30" r="1" opacity="0.7"/>
    <circle cx="350" cy="60" r="2" opacity="0.9"/>
    <circle cx="500" cy="20" r="1.5" opacity="0.6"/>
    <circle cx="680" cy="45" r="1" opacity="0.8"/>
    <circle cx="820" cy="25" r="2" opacity="0.7"/>
    <circle cx="960" cy="55" r="1.5" opacity="0.9"/>
    <circle cx="1100" cy="35" r="1" opacity="0.6"/>
    <circle cx="1250" cy="50" r="2" opacity="0.8"/>
    <circle cx="1380" cy="40" r="1.5" opacity="0.7"/>
    <circle cx="140" cy="100" r="1" opacity="0.5"/>
    <circle cx="430" cy="90" r="1.5" opacity="0.6"/>
    <circle cx="760" cy="80" r="1" opacity="0.5"/>
    <circle cx="1040" cy="95" r="1.5" opacity="0.6"/>
    <circle cx="1320" cy="85" r="1" opacity="0.7"/>
  </g>

  <!-- MOON - large and pink-tinted -->
  <circle cx="1100" cy="130" r="70" fill="#ff6699" fill-opacity="0.2" filter="url(#bigGlow)"/>
  <circle cx="1100" cy="130" r="45" fill="#ffccdd" opacity="0.9"/>
  <circle cx="1090" cy="120" r="8" fill="#ffbbcc" opacity="0.5"/>
  <circle cx="1110" cy="138" r="5" fill="#ffbbcc" opacity="0.4"/>

  <!-- MAHALAXMI / WORLI TOWER - Sea Link iconic cables -->
  <!-- Sea Link left tower -->
  <rect x="190" y="380" width="30" height="380" fill="#1a0840"/>
  <rect x="195" y="370" width="20" height="15" fill="#2d1b5e"/>
  <!-- Decorative Hindu-style capital -->
  <polygon points="185,370 220,350 205,370" fill="#ff9900" fill-opacity="0.8"/>
  <!-- Cable stays -->
  <g stroke="#ff9900" stroke-width="2" opacity="0.7" filter="url(#tinyGlow)">
    <line x1="205" y1="355" x2="60" y2="660"/>
    <line x1="205" y1="355" x2="100" y2="660"/>
    <line x1="205" y1="355" x2="140" y2="660"/>
    <line x1="205" y1="355" x2="170" y2="660"/>
    <line x1="205" y1="355" x2="240" y2="660"/>
    <line x1="205" y1="355" x2="270" y2="660"/>
    <line x1="205" y1="355" x2="300" y2="660"/>
    <line x1="205" y1="355" x2="330" y2="660"/>
  </g>
  <!-- Sea Link right tower -->
  <rect x="480" y="400" width="30" height="360" fill="#1a0840"/>
  <rect x="485" y="390" width="20" height="15" fill="#2d1b5e"/>
  <polygon points="475,390 510,368 495,390" fill="#ff9900" fill-opacity="0.8"/>
  <g stroke="#ff9900" stroke-width="2" opacity="0.7" filter="url(#tinyGlow)">
    <line x1="495" y1="373" x2="340" y2="660"/>
    <line x1="495" y1="373" x2="380" y2="660"/>
    <line x1="495" y1="373" x2="420" y2="660"/>
    <line x1="495" y1="373" x2="450" y2="660"/>
    <line x1="495" y1="373" x2="510" y2="660"/>
    <line x1="495" y1="373" x2="540" y2="660"/>
    <line x1="495" y1="373" x2="570" y2="660"/>
    <line x1="495" y1="373" x2="610" y2="660"/>
  </g>
  <!-- Road deck -->
  <rect x="60" y="655" width="560" height="20" fill="#110830"/>
  <line x1="60" y1="665" x2="620" y2="665" stroke="#ffcc00" stroke-width="1.5" stroke-dasharray="20,15" opacity="0.6"/>

  <!-- Background buildings - left cluster -->
  <!-- Tall residential towers, Mumbai style -->
  <rect x="-10" y="250" width="70" height="650" fill="url(#bld1)"/>
  <!-- Indian style decoration - arch windows -->
  <rect x="-10" y="250" width="70" height="650" fill="url(#archPattern)" opacity="0.5"/>
  <line x1="-10" y1="250" x2="60" y2="250" stroke="#ff6600" stroke-width="2" opacity="0.6" filter="url(#tinyGlow)"/>

  <rect x="50" y="200" width="85" height="700" fill="url(#bldSaffron)"/>
  <!-- Rooftop Indian dome / chhatri -->
  <ellipse cx="92" cy="198" rx="28" ry="14" fill="#8b3a00" opacity="0.9"/>
  <polygon points="79,200 92,178 105,200" fill="#6b2800"/>
  <line x1="92" y1="178" x2="92" y2="155" stroke="#ffcc00" stroke-width="2" filter="url(#tinyGlow)"/>
  <circle cx="92" cy="153" r="4" fill="#ffcc00" filter="url(#tinyGlow)"/>
  <!-- Window lights - warm yellow -->
  <g fill="#ffaa44" opacity="0.7">
    <rect x="58" y="222" width="12" height="18" rx="2"/>
    <rect x="74" y="222" width="12" height="18" rx="2"/>
    <rect x="90" y="222" width="12" height="18" rx="2"/>
    <rect x="106" y="222" width="12" height="18" rx="2"/>
    <rect x="58" y="254" width="12" height="18" rx="2"/>
    <rect x="90" y="254" width="12" height="18" rx="2"/>
    <rect x="106" y="254" width="12" height="18" rx="2"/>
    <rect x="74" y="286" width="12" height="18" rx="2"/>
    <rect x="106" y="286" width="12" height="18" rx="2"/>
    <rect x="58" y="318" width="12" height="18" rx="2"/>
    <rect x="90" y="318" width="12" height="18" rx="2"/>
  </g>

  <!-- GATEWAY OF INDIA inspired arch structure -->
  <g transform="translate(580 420)">
    <!-- Main arch body -->
    <rect x="-55" y="0" width="110" height="220" fill="#5c2d00"/>
    <!-- The great arch -->
    <path d="M-55,80 L-55,0 Q0,-60 55,0 L55,80 Z" fill="#6b3500"/>
    <!-- Inner arch cutout -->
    <path d="M-35,80 L-35,20 Q0,-20 35,20 L35,80 Z" fill="#3d1800"/>
    <!-- Decorative towers flanking -->
    <rect x="-70" y="20" width="18" height="180" fill="#5c2d00"/>
    <rect x="52" y="20" width="18" height="180" fill="#5c2d00"/>
    <!-- Dome tops on flanking towers -->
    <ellipse cx="-61" cy="18" rx="12" ry="8" fill="#8b5a00"/>
    <polygon points="-68,18 -61,0 -54,18" fill="#6b4000"/>
    <ellipse cx="61" cy="18" rx="12" ry="8" fill="#8b5a00"/>
    <polygon points="54,18 61,0 68,18" fill="#6b4000"/>
    <!-- Central dome -->
    <ellipse cx="0" cy="-60" rx="22" ry="14" fill="#8b5a00"/>
    <polygon points="-14,-62 0,-85 14,-62" fill="#6b4000"/>
    <!-- Decorative details -->
    <line x1="-55" y1="40" x2="55" y2="40" stroke="#ff9900" stroke-width="1" opacity="0.6"/>
    <line x1="-55" y1="80" x2="55" y2="80" stroke="#ff9900" stroke-width="1" opacity="0.6"/>
    <!-- Window arches on towers -->
    <path d="M-70,60 Q-61,45 -52,60 L-52,80 L-70,80 Z" fill="#3d1800"/>
    <path d="M52,60 Q61,45 70,60 L70,80 L52,80 Z" fill="#3d1800"/>
    <!-- Golden trim highlights -->
    <line x1="-70" y1="20" x2="70" y2="20" stroke="#cc8800" stroke-width="1.5" opacity="0.7" filter="url(#tinyGlow)"/>
    <!-- Inscription glow -->
    <rect x="-35" y="90" width="70" height="20" fill="#ff8800" fill-opacity="0.1" rx="2"/>
    <text x="0" y="104" font-family="serif" font-size="9" fill="#ffcc44" text-anchor="middle" opacity="0.8">GATEWAY OF INDIA</text>
  </g>

  <!-- Mid background buildings center -->
  <rect x="700" y="220" width="90" height="680" fill="url(#bldTeal)"/>
  <ellipse cx="745" cy="218" rx="30" ry="16" fill="#004d5e"/>
  <polygon points="730,220 745,196 760,220" fill="#003340"/>
  <line x1="745" y1="196" x2="745" y2="168" stroke="#00ffff" stroke-width="2" opacity="0.7" filter="url(#tinyGlow)"/>
  <!-- Teal window lights -->
  <g fill="#00ddff" opacity="0.4">
    <rect x="710" y="240" width="11" height="17" rx="1"/>
    <rect x="725" y="240" width="11" height="17" rx="1"/>
    <rect x="740" y="240" width="11" height="17" rx="1"/>
    <rect x="755" y="240" width="11" height="17" rx="1"/>
    <rect x="770" y="240" width="11" height="17" rx="1"/>
    <rect x="710" y="272" width="11" height="17" rx="1"/>
    <rect x="740" y="272" width="11" height="17" rx="1"/>
    <rect x="770" y="272" width="11" height="17" rx="1"/>
    <rect x="725" y="304" width="11" height="17" rx="1"/>
    <rect x="755" y="304" width="11" height="17" rx="1"/>
    <rect x="710" y="336" width="11" height="17" rx="1"/>
    <rect x="740" y="336" width="11" height="17" rx="1"/>
  </g>

  <rect x="780" y="280" width="75" height="620" fill="url(#bld1)"/>
  <rect x="844" y="180" width="100" height="720" fill="url(#bldSaffron)"/>
  <rect x="847" y="160" width="94" height="26" fill="#8b3a00"/>
  <rect x="857" y="140" width="74" height="22" fill="#6b2800"/>
  <!-- Stepped Hindu shikhara top -->
  <rect x="866" y="120" width="56" height="22" fill="#8b3a00"/>
  <rect x="874" y="103" width="40" height="19" fill="#6b2800"/>
  <rect x="881" y="90" width="26" height="15" fill="#8b3a00"/>
  <rect x="886" y="80" width="16" height="12" fill="#6b2800"/>
  <!-- Temple finial flag -->
  <line x1="894" y1="80" x2="894" y2="50" stroke="#ff9900" stroke-width="2" filter="url(#tinyGlow)"/>
  <polygon points="894,55 910,63 894,71" fill="#ff6600" filter="url(#warmGlow)"/>
  <g fill="#ffaa44" opacity="0.65">
    <rect x="855" y="196" width="11" height="17" rx="2"/>
    <rect x="870" y="196" width="11" height="17" rx="2"/>
    <rect x="885" y="196" width="11" height="17" rx="2"/>
    <rect x="900" y="196" width="11" height="17" rx="2"/>
    <rect x="916" y="196" width="11" height="17" rx="2"/>
    <rect x="855" y="227" width="11" height="17" rx="2"/>
    <rect x="885" y="227" width="11" height="17" rx="2"/>
    <rect x="916" y="227" width="11" height="17" rx="2"/>
    <rect x="870" y="258" width="11" height="17" rx="2"/>
    <rect x="900" y="258" width="11" height="17" rx="2"/>
  </g>

  <!-- Right cluster of Mumbai high-rises -->
  <rect x="940" y="240" width="80" height="660" fill="url(#bld1)"/>
  <ellipse cx="980" cy="238" rx="25" ry="13" fill="#2d1b5e"/>
  
  <!-- CENTRAL DOMINANT TOWER - BKC Business District style -->
  <rect x="1010" y="140" width="150" height="760" fill="url(#bldTeal)"/>
  <!-- Glass facade shimmer -->
  <rect x="1010" y="140" width="150" height="760" fill="#004d5e" fill-opacity="0.3"/>
  <!-- Reflection - pink sky -->
  <rect x="1015" y="145" width="140" height="400" fill="#8b1a6b" fill-opacity="0.2"/>
  <!-- Vertical bands -->
  <line x1="1010" y1="140" x2="1010" y2="900" stroke="#00ffcc" stroke-width="2" opacity="0.6" filter="url(#tinyGlow)"/>
  <line x1="1160" y1="140" x2="1160" y2="900" stroke="#00ffcc" stroke-width="2" opacity="0.6" filter="url(#tinyGlow)"/>
  <line x1="1010" y1="140" x2="1160" y2="140" stroke="#00ffcc" stroke-width="2" opacity="0.6" filter="url(#tinyGlow)"/>
  <line x1="1060" y1="140" x2="1060" y2="900" stroke="#00aaaa" stroke-width="0.8" opacity="0.4"/>
  <line x1="1085" y1="140" x2="1085" y2="900" stroke="#00ffcc" stroke-width="1.5" opacity="0.5" filter="url(#tinyGlow)"/>
  <line x1="1110" y1="140" x2="1110" y2="900" stroke="#00aaaa" stroke-width="0.8" opacity="0.4"/>
  <!-- Horizontal bands -->
  <line x1="1010" y1="280" x2="1160" y2="280" stroke="#00aacc" stroke-width="0.8" opacity="0.4"/>
  <line x1="1010" y1="420" x2="1160" y2="420" stroke="#00aacc" stroke-width="0.8" opacity="0.4"/>
  <line x1="1010" y1="560" x2="1160" y2="560" stroke="#00aacc" stroke-width="0.8" opacity="0.4"/>
  <line x1="1010" y1="700" x2="1160" y2="700" stroke="#00aacc" stroke-width="0.8" opacity="0.4"/>
  <!-- Stepped top and spire -->
  <rect x="1030" y="120" width="110" height="24" fill="#003340"/>
  <rect x="1048" y="100" width="75" height="22" fill="#004d5e"/>
  <polygon points="1048,100 1085,65 1123,100" fill="#003340"/>
  <line x1="1085" y1="65" x2="1085" y2="20" stroke="#00ffff" stroke-width="3" filter="url(#pinkGlow)"/>
  <circle cx="1085" cy="18" r="6" fill="#00ffff" filter="url(#pinkGlow)"/>
  <circle cx="1085" cy="18" r="18" fill="#00ffff" fill-opacity="0.2" filter="url(#bigGlow)"/>
  <!-- Window lights teal -->
  <g fill="#00ffcc" opacity="0.35">
    <rect x="1020" y="160" width="12" height="18" rx="1"/>
    <rect x="1036" y="160" width="12" height="18" rx="1"/>
    <rect x="1052" y="160" width="12" height="18" rx="1"/>
    <rect x="1068" y="160" width="12" height="18" rx="1"/>
    <rect x="1084" y="160" width="12" height="18" rx="1"/>
    <rect x="1100" y="160" width="12" height="18" rx="1"/>
    <rect x="1116" y="160" width="12" height="18" rx="1"/>
    <rect x="1132" y="160" width="12" height="18" rx="1"/>
    <rect x="1148" y="160" width="12" height="18" rx="1"/>
    <rect x="1020" y="192" width="12" height="18" rx="1"/>
    <rect x="1052" y="192" width="12" height="18" rx="1"/>
    <rect x="1084" y="192" width="12" height="18" rx="1"/>
    <rect x="1116" y="192" width="12" height="18" rx="1"/>
    <rect x="1148" y="192" width="12" height="18" rx="1"/>
    <rect x="1036" y="224" width="12" height="18" rx="1"/>
    <rect x="1068" y="224" width="12" height="18" rx="1"/>
    <rect x="1100" y="224" width="12" height="18" rx="1"/>
    <rect x="1132" y="224" width="12" height="18" rx="1"/>
  </g>

  <!-- Far right buildings -->
  <rect x="1155" y="280" width="90" height="620" fill="url(#bldSaffron)"/>
  <ellipse cx="1200" cy="278" rx="28" ry="14" fill="#8b3a00"/>
  <polygon points="1186,280 1200,258 1214,280" fill="#6b2800"/>

  <rect x="1230" y="220" width="100" height="680" fill="url(#bld1)"/>
  <rect x="1242" y="200" width="80" height="24" fill="#2d1b5e"/>
  <rect x="1254" y="180" width="58" height="22" fill="#1a0840"/>
  <line x1="1282" y1="180" x2="1282" y2="148" stroke="#ff00aa" stroke-width="2" filter="url(#pinkGlow)"/>
  <circle cx="1282" cy="146" r="4" fill="#ff00aa" filter="url(#pinkGlow)"/>

  <rect x="1320" y="260" width="90" height="640" fill="url(#bldTeal)"/>

  <!-- ARABIAN SEA -->
  <rect x="0" y="750" width="1400" height="150" fill="url(#seaGrad)"/>
  <!-- Sea ripples with warm reflection -->
  <g fill="#ff6b35" opacity="0.12">
    <ellipse cx="200" cy="780" rx="150" ry="18"/>
    <ellipse cx="700" cy="810" rx="280" ry="25"/>
    <ellipse cx="1200" cy="790" rx="170" ry="20"/>
  </g>
  <!-- Wave lines -->
  <g stroke="#1d4568" stroke-width="1.5" fill="none" opacity="0.5">
    <path d="M0,800 Q100,790 200,800 Q300,810 400,800 Q500,790 600,800 Q700,810 800,800 Q900,790 1000,800 Q1100,810 1200,800 Q1300,790 1400,800"/>
    <path d="M0,830 Q100,820 200,830 Q300,840 400,830 Q500,820 600,830 Q700,840 800,830 Q900,820 1000,830 Q1100,840 1200,830 Q1300,820 1400,830"/>
    <path d="M0,860 Q100,850 200,860 Q300,870 400,860 Q500,850 600,860 Q700,870 800,860 Q900,850 1000,860 Q1100,870 1200,860 Q1300,850 1400,860"/>
  </g>

  <!-- Street level lights / hanging lights between buildings -->
  <!-- String lights -->
  <g filter="url(#tinyGlow)">
    <path d="M50,670 Q200,645 380,660 Q480,670 560,660" fill="none" stroke="#ffcc00" stroke-width="1" opacity="0.7"/>
    <path d="M50,690 Q200,665 380,680 Q480,690 560,680" fill="none" stroke="#ff6600" stroke-width="1" opacity="0.5"/>
    <!-- Lights along string -->
    <circle cx="80" cy="672" r="3" fill="#ffcc00"/>
    <circle cx="130" cy="665" r="3" fill="#ff6600"/>
    <circle cx="180" cy="660" r="3" fill="#ffcc00"/>
    <circle cx="230" cy="658" r="3" fill="#ff9900"/>
    <circle cx="280" cy="660" r="3" fill="#ffcc00"/>
    <circle cx="330" cy="665" r="3" fill="#ff6600"/>
    <circle cx="380" cy="662" r="3" fill="#ffcc00"/>
    <circle cx="430" cy="666" r="3" fill="#ff9900"/>
    <circle cx="480" cy="672" r="3" fill="#ffcc00"/>
    <circle cx="530" cy="663" r="3" fill="#ff6600"/>
  </g>

  <!-- PAVITR PRABHAKAR - Spider-Man India - red & gold suit -->
  <g transform="translate(750 300) rotate(-20)">
    <!-- Web line attached to Alchemax tower -->
    <path d="M0,0 Q-100,-80 -200,-180" fill="none" stroke="#cc3300" stroke-width="2.5" opacity="0.9" filter="url(#tinyGlow)"/>
    <!-- Second web -->
    <path d="M0,0 Q50,-30 120,-20" fill="none" stroke="#cc8800" stroke-width="1.5" opacity="0.6" filter="url(#tinyGlow)"/>
    <!-- Body - red & gold Indian Spider-Man -->
    <ellipse cx="0" cy="0" rx="13" ry="17" fill="#cc2200"/>
    <!-- Gold chest panel -->
    <ellipse cx="0" cy="-1" rx="8" ry="11" fill="#cc8800" opacity="0.9"/>
    <!-- Head -->
    <circle cx="0" cy="-21" r="11" fill="#cc2200"/>
    <!-- Gold mask details -->
    <ellipse cx="0" cy="-21" rx="7" ry="6" fill="#cc7700" opacity="0.6"/>
    <!-- White eyes - stylized -->
    <ellipse cx="-3.5" cy="-22" rx="4" ry="3.5" fill="white"/>
    <ellipse cx="3.5" cy="-22" rx="4" ry="3.5" fill="white"/>
    <!-- Arm out web-shooting -->
    <line x1="0" y1="-5" x2="-23" y2="-22" stroke="#cc2200" stroke-width="4.5" stroke-linecap="round"/>
    <line x1="0" y1="-5" x2="15" y2="10" stroke="#cc8800" stroke-width="4" stroke-linecap="round"/>
    <!-- Legs -->
    <line x1="0" y1="11" x2="-12" y2="28" stroke="#cc2200" stroke-width="3.5" stroke-linecap="round"/>
    <line x1="0" y1="11" x2="11" y2="27" stroke="#cc2200" stroke-width="3.5" stroke-linecap="round"/>
    <!-- Web on wrist -->
    <path d="M-23,-22 Q-35,-28 -40,-22" fill="none" stroke="#dddddd" stroke-width="1.5" opacity="0.9"/>
  </g>

  <!-- Floating marigold/lotus motifs in sky - decorative Indian touch -->
  <g opacity="0.25" fill="none">
    <circle cx="150" cy="180" r="15" stroke="#ff9900" stroke-width="1"/>
    <circle cx="150" cy="180" r="8" stroke="#ff6600" stroke-width="1"/>
    <circle cx="1300" cy="200" r="12" stroke="#ff00aa" stroke-width="1"/>
    <circle cx="1300" cy="200" r="6" stroke="#ff6600" stroke-width="1"/>
    <circle cx="950" cy="160" r="10" stroke="#ffcc00" stroke-width="1"/>
  </g>

  <!-- Comic style bold outline border -->
  <rect width="1400" height="900" fill="none" stroke="#1a0040" stroke-width="8"/>

  <!-- CAPTION BOX -->
  <rect x="20" y="20" width="320" height="58" fill="#ff00aa" rx="4"/>
  <rect x="24" y="24" width="312" height="50" fill="#cc0088" rx="3"/>
  <text x="180" y="44" font-family="'Impact', 'Arial Black', sans-serif" font-size="13" fill="white" text-anchor="middle" letter-spacing="3">MUMBAI, INDIA</text>
  <text x="180" y="65" font-family="'Impact', 'Arial Black', sans-serif" font-size="11" fill="#ffcc00" text-anchor="middle" letter-spacing="2">EARTH-50101 — ARABIAN SEA</text>

  <!-- Devanagari style decorative text -->
  <text x="700" y="875" font-family="serif" font-size="15" fill="#ff9900" text-anchor="middle" opacity="0.7" letter-spacing="4">॥ मुंबई ॥ MUMBAI ॥ स्पाइडर-मैन ॥</text>
</svg>
